<?xml version="1.0" standalone="no"?>
<!DOCTYPE svg PUBLIC "-//W3C//DTD SVG 20010904//EN"
 "http://www.w3.org/TR/2001/REC-SVG-20010904/DTD/svg10.dtd">
<svg version="1.0" xmlns="http://www.w3.org/2000/svg"
 width="255.000000pt" height="255.000000pt" viewBox="0 0 255.000000 255.000000"
 preserveAspectRatio="xMidYMid meet">

<g transform="translate(0.000000,255.000000) scale(0.100000,-0.100000)"
fill="#000000" stroke="none">
<path d="M0 2529 c0 -14 5 -19 18 -17 9 2 27 -9 40 -24 28 -32 62 -37 62 -9 0
24 -23 43 -55 45 -16 0 -23 6 -20 14 3 7 -5 12 -20 12 -19 0 -25 -5 -25 -21z
m70 -19 c0 -5 -4 -10 -10 -10 -5 0 -10 5 -10 10 0 6 5 10 10 10 6 0 10 -4 10
-10z"/>
<path d="M213 2520 c-9 -16 -20 -30 -23 -30 -3 -1 -16 -10 -29 -20 -20 -17
-21 -23 -11 -36 19 -22 64 -14 68 13 2 13 15 27 32 35 24 10 50 44 50 63 0 3
-15 5 -34 5 -28 0 -38 -6 -53 -30z"/>
<path d="M844 2535 c23 -17 46 -20 46 -4 0 5 5 7 12 3 7 -4 8 -3 4 4 -4 7 -24
12 -44 12 -35 -1 -36 -2 -18 -15z"/>
<path d="M998 2543 c7 -3 16 -2 19 1 4 3 -2 6 -13 5 -11 0 -14 -3 -6 -6z"/>
<path d="M1930 2541 c0 -6 10 -22 23 -37 22 -25 24 -25 40 -10 14 14 14 20 4
36 -12 20 -67 29 -67 11z"/>
<path d="M2300 2540 c0 -5 6 -10 14 -10 8 0 18 5 21 10 3 6 -3 10 -14 10 -12
0 -21 -4 -21 -10z"/>
<path d="M1160 2515 c0 -14 12 -20 34 -16 5 1 6 -5 3 -14 -4 -9 -1 -15 8 -15
8 0 15 -5 15 -10 0 -6 11 -16 25 -22 20 -9 28 -9 38 2 10 10 9 11 -3 5 -13 -8
-13 -6 -1 8 22 27 7 46 -33 40 -28 -3 -37 0 -46 16 -12 24 -40 28 -40 6z"/>
<path d="M607 2509 c-10 -6 -37 -13 -60 -15 -23 -3 -48 -7 -54 -9 -7 -2 -35 3
-62 12 -27 8 -57 13 -65 10 -25 -10 -19 -35 13 -52 33 -16 71 -61 71 -81 0
-21 40 -56 56 -50 8 3 19 17 26 31 10 22 8 27 -15 46 -40 30 -34 43 16 36 48
-7 124 12 137 33 11 19 -6 50 -28 50 -9 0 -25 -5 -35 -11z"/>
<path d="M2192 2513 c-18 -2 -42 -13 -53 -24 -16 -16 -22 -17 -39 -7 -16 10
-23 10 -36 -4 -34 -34 22 -76 65 -49 10 6 25 4 42 -5 16 -8 37 -14 47 -14 37
0 58 103 22 106 -8 0 -30 -1 -48 -3z"/>
<path d="M1066 2503 c-3 -3 -6 -18 -5 -32 0 -14 3 -20 6 -12 5 11 7 11 14 0 6
-10 9 -6 9 13 0 27 -12 43 -24 31z"/>
<path d="M1418 2484 c-35 -18 -36 -47 -3 -68 22 -14 23 -19 12 -38 -14 -26
-37 -52 -37 -43 0 3 -9 -3 -21 -14 -18 -16 -20 -28 -17 -83 l4 -63 32 3 c29 2
33 -1 38 -28 8 -37 20 -38 56 -3 26 25 31 26 61 15 19 -7 41 -12 50 -12 29 0
27 -17 -10 -75 -27 -41 -42 -55 -54 -52 -31 8 -52 -26 -44 -72 5 -33 3 -42 -9
-47 -9 -3 -16 -14 -16 -23 0 -26 -58 -85 -73 -73 -7 5 -36 17 -66 26 -48 16
-55 16 -70 2 -10 -9 -28 -16 -40 -16 -12 0 -35 -10 -51 -22 -34 -24 -36 -24
-45 15 -5 20 -4 27 8 27 8 0 20 7 27 15 10 13 9 18 -8 33 -11 10 -22 27 -24
37 -2 16 4 21 30 23 27 3 36 10 48 37 20 48 18 75 -5 75 -18 0 -60 -57 -62
-83 0 -7 -12 -22 -27 -33 -30 -24 -51 -17 -65 19 -3 9 -27 29 -52 45 -40 24
-45 31 -45 62 1 29 -3 85 -9 122 -1 4 -16 10 -35 14 -19 3 -37 12 -40 20 -3 8
-12 14 -19 14 -8 0 -22 9 -32 20 -24 27 -61 25 -97 -5 -24 -20 -32 -23 -48
-13 -10 7 -24 22 -31 35 -7 13 -21 23 -32 23 -15 0 -17 -3 -9 -13 6 -7 9 -23
5 -35 -4 -16 0 -27 13 -37 18 -14 18 -14 -3 -15 -17 0 -23 6 -23 21 0 14 -5
19 -17 17 -10 -2 -16 -7 -13 -12 7 -13 -38 -27 -66 -20 -19 5 -23 11 -18 29 4
16 -1 30 -15 44 -18 18 -24 19 -47 9 -22 -10 -25 -17 -21 -45 5 -29 3 -33 -18
-33 -16 0 -27 9 -36 29 -7 16 -21 34 -32 40 -15 10 -21 9 -33 -6 -7 -10 -14
-24 -14 -30 0 -16 -32 -17 -48 -1 -18 18 -15 41 8 66 28 30 16 53 -29 52 -20
0 -47 1 -61 3 -41 6 -58 -46 -20 -58 11 -3 20 -11 20 -16 0 -14 -28 -11 -33 4
-3 8 -14 2 -32 -16 -16 -15 -34 -26 -42 -23 -10 4 -13 -7 -13 -44 0 -40 3 -48
15 -44 8 4 15 10 15 14 0 15 31 40 50 40 10 0 21 -7 24 -16 6 -16 -19 -74 -32
-74 -4 0 -8 -9 -8 -20 0 -11 4 -20 8 -20 4 0 8 -6 8 -13 0 -14 40 -33 88 -43
22 -5 32 -12 32 -25 0 -22 35 -27 43 -6 3 6 6 -5 6 -26 1 -27 -3 -36 -11 -31
-8 5 -9 2 -4 -12 14 -35 18 -73 12 -98 -4 -18 -14 -25 -41 -28 -19 -2 -40 1
-45 6 -13 13 -45 -18 -35 -34 4 -6 19 -16 33 -21 16 -6 22 -13 15 -17 -22 -14
-18 -48 10 -81 21 -25 33 -32 52 -28 24 4 25 2 25 -44 0 -42 -5 -53 -40 -90
-39 -41 -39 -42 -25 -75 15 -37 18 -39 46 -24 17 10 19 7 19 -25 0 -29 -4 -35
-20 -35 -11 0 -23 -7 -26 -15 -7 -18 14 -47 27 -39 5 3 9 -9 9 -26 0 -25 -6
-33 -28 -43 -16 -7 -27 -17 -25 -24 3 -7 -4 -9 -19 -5 -22 5 -22 5 -6 -11 9
-9 20 -17 25 -17 4 -1 19 -9 31 -20 21 -18 23 -27 20 -85 -2 -37 1 -66 7 -68
6 -2 -5 -4 -23 -5 -37 -1 -55 23 -50 67 1 17 -6 38 -20 55 -12 16 -20 32 -17
36 8 13 -21 74 -45 95 l-22 20 -24 -28 c-13 -16 -21 -33 -18 -39 5 -7 1 -9 -9
-5 -10 3 -17 2 -17 -3 0 -6 8 -10 17 -10 14 0 13 -3 -5 -16 -16 -11 -22 -25
-22 -54 0 -34 4 -41 25 -46 14 -3 22 -10 19 -15 -3 -5 -1 -9 5 -9 17 0 42 -46
35 -64 -7 -17 -49 -22 -59 -6 -13 21 -25 9 -25 -24 0 -31 3 -34 40 -44 22 -5
37 -6 34 -1 -8 14 50 11 64 -3 17 -17 15 -55 -3 -62 -9 -3 -35 1 -58 9 -67 23
-77 20 -77 -21 0 -22 4 -33 10 -29 6 4 17 1 26 -5 16 -14 2 -40 -22 -40 -19 0
-18 -49 1 -57 14 -5 14 -8 0 -29 -12 -18 -15 -54 -14 -171 0 -92 4 -140 9
-128 8 18 9 17 9 -7 1 -16 -3 -28 -9 -28 -17 0 -13 -155 5 -170 8 -7 13 -16
10 -20 -3 -4 6 -10 20 -12 14 -3 25 0 26 6 0 6 5 -2 11 -17 13 -37 -4 -57 -48
-57 -30 0 -34 -3 -34 -25 0 -24 3 -25 54 -25 30 0 58 5 61 10 4 6 23 21 43 34
21 13 48 34 62 47 13 13 25 22 25 21 0 -2 13 2 29 9 26 12 30 11 48 -14 26
-35 43 -34 88 5 20 18 46 39 58 47 19 14 20 16 4 26 -9 7 -30 15 -45 19 -21 5
-27 11 -22 25 7 22 -18 46 -40 37 -8 -3 -23 -21 -32 -41 -9 -19 -22 -35 -28
-35 -22 0 -48 38 -43 65 3 14 1 25 -3 25 -5 0 -9 8 -9 19 0 24 -25 45 -45 37
-8 -3 -15 0 -15 7 -1 7 -6 5 -14 -5 -7 -10 -19 -18 -27 -18 -10 1 -9 4 4 14 9
7 17 19 17 26 0 8 10 24 22 37 12 13 16 23 10 23 -6 0 -9 6 -6 14 9 24 -35 27
-56 3 -11 -12 -20 -26 -20 -32 -1 -5 -6 -16 -12 -23 -9 -10 -17 -7 -38 15 -26
26 -60 110 -40 98 5 -3 6 10 3 29 -7 44 9 52 43 21 32 -30 65 -32 88 -6 19 21
43 18 63 -8 15 -21 -1 -41 -33 -41 -15 0 -24 -6 -24 -15 0 -8 6 -15 14 -15 17
0 76 -71 76 -91 1 -19 21 -43 48 -58 19 -10 22 -9 22 9 0 15 7 20 25 20 14 0
28 -7 31 -15 3 -8 16 -17 27 -21 12 -3 37 -13 56 -22 30 -14 36 -14 65 2 41
22 83 13 99 -21 9 -21 8 -27 -8 -36 -11 -6 -35 -12 -52 -14 -42 -3 -70 -29
-78 -76 -6 -30 -4 -37 9 -37 9 0 16 7 16 15 0 8 10 20 22 26 18 10 24 8 39
-10 10 -12 16 -28 13 -35 -3 -7 2 -16 11 -20 19 -7 62 13 49 23 -13 9 -14 41
-2 41 6 0 7 11 4 25 -5 21 -1 28 24 43 62 34 66 39 53 61 -14 22 -5 34 37 46
14 4 42 20 62 36 20 16 40 29 43 29 12 0 64 -47 59 -53 -3 -2 2 -7 11 -11 23
-8 31 21 11 43 -21 23 -21 88 0 130 9 18 14 43 12 56 -3 13 -1 30 3 37 7 10 9
9 9 -4 0 -12 5 -15 18 -11 15 6 15 5 3 -10 -8 -10 -11 -20 -7 -24 3 -3 6 -1 6
6 0 7 4 10 9 7 5 -4 11 -2 13 3 1 5 12 3 22 -5 16 -11 17 -17 8 -26 -16 -16
-15 -45 2 -51 17 -7 36 11 36 35 0 29 15 21 58 -27 22 -25 46 -45 53 -45 11 0
14 -16 13 -67 -2 -59 -5 -69 -28 -88 -32 -26 -33 -45 -3 -46 20 -2 31 -3 62
-8 6 0 28 -17 49 -37 39 -37 76 -41 57 -7 -5 10 -14 33 -20 51 -10 32 -9 33
29 48 44 18 50 28 23 39 -13 4 -26 -3 -44 -24 -15 -18 -35 -31 -48 -31 -21 0
-23 4 -17 32 5 32 -3 64 -37 138 -14 32 -14 35 1 41 20 7 52 0 52 -11 0 -4 9
-10 19 -13 18 -4 61 24 61 41 0 11 59 42 80 42 10 0 22 4 25 10 18 29 77 -5
68 -38 -5 -21 20 -52 42 -52 8 0 19 -9 25 -20 6 -11 18 -20 27 -20 14 0 69
-49 61 -55 -2 -1 -13 -8 -25 -14 -28 -14 -29 -32 -5 -54 25 -23 36 -21 63 8
27 28 59 32 93 10 23 -15 86 -11 86 5 0 5 15 11 33 15 17 4 42 13 55 21 14 9
22 10 22 4 0 -6 4 -9 9 -5 5 3 12 1 15 -4 4 -5 21 -5 43 0 21 5 56 9 77 9 54
0 68 22 46 68 -15 31 -16 38 -4 50 8 7 11 18 8 24 -4 6 16 8 60 3 61 -6 66 -5
66 14 0 13 -9 21 -30 26 -16 4 -30 10 -30 15 0 4 -13 13 -30 20 -29 12 -30 15
-30 75 0 43 5 66 15 75 16 14 15 44 -3 62 -27 27 -12 54 26 49 15 -2 16 15 2
24 -16 10 -9 74 7 68 8 -3 13 2 13 12 0 11 -5 15 -16 11 -8 -3 -12 -2 -9 3 3
5 -3 12 -14 16 -25 7 -31 34 -15 60 7 11 11 34 9 50 -1 17 2 39 8 50 6 11 12
38 12 60 3 133 4 137 23 130 26 -12 72 -18 72 -10 0 17 -23 46 -48 59 -39 20
-65 4 -57 -34 8 -35 -10 -49 -19 -15 -9 36 4 168 18 183 10 10 19 10 49 -3 20
-8 43 -12 52 -9 28 11 12 38 -28 47 -21 5 -37 15 -37 23 0 8 -5 14 -11 14 -6
0 -10 30 -9 83 2 115 2 117 -14 117 -13 0 -19 14 -30 76 -7 34 38 50 72 26 31
-22 54 -19 45 6 -11 28 -58 77 -78 80 -24 5 -35 20 -35 47 0 15 3 16 9 7 10
-17 21 6 21 46 0 36 -10 49 -43 57 -17 5 -27 14 -27 26 0 12 -10 21 -27 25
-16 4 -33 13 -39 21 -19 22 -393 21 -428 -2 -23 -15 -26 -15 -50 0 -16 11 -26
27 -26 41 0 33 -20 41 -40 16 -19 -23 -25 -25 -97 -23 -51 1 -53 2 -53 30 0
18 10 38 25 52 17 17 25 35 25 59 0 19 5 53 11 74 10 35 9 42 -7 53 -22 16
-22 16 -56 -3z m-1348 -244 c0 -5 -4 -10 -10 -10 -5 0 -10 5 -10 10 0 6 5 10
10 10 6 0 10 -4 10 -10z m1365 -40 c-11 -5 -27 -9 -35 -9 -13 -1 -13 0 0 9 8
5 24 9 35 9 l20 0 -20 -9z m-1142 -92 c-12 -13 -23 -34 -25 -48 -2 -16 -9 -24
-18 -21 -8 2 -27 4 -42 5 -48 2 -33 23 40 55 12 6 22 15 22 21 0 5 10 10 22
10 l21 0 -20 -22z m767 -225 c0 -10 -20 -40 -20 -31 0 3 -3 13 -6 22 -4 11 -1
16 10 16 9 0 16 -3 16 -7z m252 -116 c31 -7 60 -15 63 -19 4 -3 -5 -26 -19
-50 -15 -23 -29 -51 -32 -60 -4 -10 -15 -18 -25 -18 -13 0 -17 -6 -14 -21 3
-13 0 -19 -8 -16 -7 2 -16 -2 -22 -9 -15 -21 -33 -3 -36 36 -2 19 -10 44 -18
55 -15 18 -15 19 2 6 9 -7 17 -10 17 -6 0 4 6 3 13 -3 7 -6 18 -7 25 -3 8 5 1
17 -23 41 -38 37 -45 66 -17 73 26 7 33 7 94 -6z m-1055 -84 c-3 -10 -5 -2 -5
17 0 19 2 27 5 18 2 -10 2 -26 0 -35z m-42 -743 c8 -13 -5 -13 -25 0 -13 8
-13 10 2 10 9 0 20 -4 23 -10z m-39 -165 c13 -13 13 -15 1 -15 -8 0 -20 7 -27
15 -9 11 -10 15 -1 15 7 0 19 -7 27 -15z m1131 -17 c-3 -7 -5 -2 -5 12 0 14 2
19 5 13 2 -7 2 -19 0 -25z m-1087 -8 c0 -5 -2 -10 -4 -10 -3 0 -8 5 -11 10 -3
6 -1 10 4 10 6 0 11 -4 11 -10z m30 -26 c0 -8 -5 -12 -10 -9 -6 4 -8 11 -5 16
9 14 15 11 15 -7z m1330 -58 c0 -29 -10 -38 -29 -27 -10 7 -10 13 -2 30 16 28
31 27 31 -3z m-1416 -35 c7 -11 -22 -23 -35 -15 -5 3 -7 10 -4 15 8 12 32 12
39 0z m283 -23 c-3 -7 -5 -2 -5 12 0 14 2 19 5 13 2 -7 2 -19 0 -25z m8 -38
c-3 -5 -10 -10 -16 -10 -5 0 -9 5 -9 10 0 6 7 10 16 10 8 0 12 -4 9 -10z m238
-2 c7 -4 -41 -8 -105 -8 -78 0 -118 4 -118 11 0 12 203 9 223 -3z m1127 2
c-20 -13 -70 -13 -70 0 0 6 19 10 43 10 31 0 38 -3 27 -10z m-245 -41 c-8 -23
-8 -23 -15 -4 -9 26 -1 50 12 37 6 -6 7 -21 3 -33z m443 34 c-10 -2 -28 -2
-40 0 -13 2 -5 4 17 4 22 1 32 -1 23 -4z m-1728 -108 c0 -8 -2 -15 -4 -15 -2
0 -6 7 -10 15 -3 8 -1 15 4 15 6 0 10 -7 10 -15z m-240 -85 c0 -5 -4 -10 -10
-10 -5 0 -10 5 -10 10 0 6 5 10 10 10 6 0 10 -4 10 -10z m0 -34 c0 -3 -4 -8
-10 -11 -5 -3 -10 -1 -10 4 0 6 5 11 10 11 6 0 10 -2 10 -4z m35 -106 c4 -6 3
-30 -1 -53 -4 -23 -9 -35 -12 -27 -3 8 -14 21 -24 30 -17 14 -17 17 -3 38 18
24 30 28 40 12z m126 -40 c23 -13 24 -33 2 -55 -16 -16 -18 -16 -35 5 -13 17
-15 26 -8 41 12 22 15 23 41 9z m189 0 c0 -5 -5 -10 -11 -10 -5 0 -7 5 -4 10
3 6 8 10 11 10 2 0 4 -4 4 -10z"/>
<path d="M1685 2479 c-4 -6 1 -17 11 -24 16 -12 21 -12 33 0 7 7 10 18 7 24
-9 14 -43 14 -51 0z"/>
<path d="M901 2463 l-24 -16 27 -14 c39 -20 33 -46 -16 -69 -49 -22 -60 -50
-29 -78 19 -17 22 -17 77 8 31 14 69 26 85 26 16 0 29 5 29 11 0 5 5 7 11 3 7
-4 10 -1 7 6 -2 7 -16 14 -31 16 -30 3 -37 -12 -9 -19 14 -4 13 -5 -3 -6 -24
-1 -45 45 -45 95 0 52 -35 69 -79 37z"/>
<path d="M1170 2472 c0 -10 33 -42 43 -42 15 0 5 19 -18 34 -14 9 -25 13 -25
8z"/>
<path d="M2510 2465 c0 -9 5 -15 11 -13 6 2 11 8 11 13 0 5 -5 11 -11 13 -6 2
-11 -4 -11 -13z"/>
<path d="M704 2457 c-6 -7 -9 -18 -6 -25 2 -6 -1 -12 -7 -12 -6 0 -11 -7 -11
-15 0 -8 4 -15 8 -15 12 0 62 54 62 68 0 16 -32 15 -46 -1z"/>
<path d="M1582 2458 c-16 -16 -15 -28 2 -28 19 0 27 13 17 28 -5 9 -10 9 -19
0z"/>
<path d="M2420 2463 c0 -5 5 -15 10 -23 9 -13 11 -13 20 0 15 22 12 30 -10 30
-11 0 -20 -3 -20 -7z"/>
<path d="M1145 2401 c-8 -26 1 -42 20 -34 19 7 19 27 1 42 -11 10 -16 8 -21
-8z"/>
<path d="M2005 2366 c-29 -8 -41 -18 -43 -34 -5 -35 24 -38 69 -7 59 41 46 63
-26 41z"/>
<path d="M350 2360 c0 -5 5 -10 10 -10 6 0 10 5 10 10 0 6 -4 10 -10 10 -5 0
-10 -4 -10 -10z"/>
<path d="M610 2360 c0 -5 5 -10 10 -10 6 0 10 5 10 10 0 6 -4 10 -10 10 -5 0
-10 -4 -10 -10z"/>
<path d="M1556 2361 c-9 -14 4 -40 25 -52 14 -7 19 -6 19 3 0 9 3 9 11 -2 8
-11 9 -9 3 10 -12 44 -43 66 -58 41z"/>
<path d="M2227 2316 c-4 -9 -2 -18 3 -21 13 -8 41 6 37 19 -6 17 -34 19 -40 2z"/>
<path d="M2436 2291 c-3 -5 4 -15 17 -24 18 -12 24 -12 35 -1 6 7 12 18 12 24
0 12 -57 14 -64 1z"/>
<path d="M1023 2249 c-13 -13 6 -37 42 -57 11 -6 20 -18 20 -28 0 -21 62 -41
77 -26 13 13 1 32 -20 32 -29 0 -59 28 -65 60 -7 31 -32 41 -54 19z"/>
<path d="M2000 2243 c0 -18 27 -16 33 1 4 10 0 14 -14 13 -10 -1 -19 -7 -19
-14z"/>
<path d="M2193 2210 c-2 -19 8 -26 20 -14 7 7 -2 34 -12 34 -4 0 -7 -9 -8 -20z"/>
<path d="M2313 2193 c-36 -14 3 -59 42 -49 30 8 33 31 6 46 -21 11 -29 11 -48
3z"/>
<path d="M1260 2166 c0 -9 7 -16 16 -16 17 0 14 22 -4 28 -7 2 -12 -3 -12 -12z"/>
<path d="M1323 2102 c3 -14 1 -20 -6 -15 -7 4 -8 0 -4 -11 4 -10 7 -21 7 -24
0 -4 7 4 16 17 15 21 15 24 -1 39 -17 16 -17 16 -12 -6z"/>
<path d="M1056 2022 c-3 -6 -1 -14 5 -17 15 -10 25 3 12 16 -7 7 -13 7 -17 1z"/>
<path d="M2507 2024 c-8 -8 24 -64 35 -64 4 0 8 16 8 35 0 27 -4 35 -18 35
-10 0 -22 -3 -25 -6z"/>
<path d="M6 2004 c-13 -34 -6 -63 15 -66 l21 -3 -21 -27 c-25 -31 -27 -47 -6
-54 9 -4 24 3 35 15 10 12 21 22 24 22 18 -2 19 0 6 10 -12 9 -12 10 4 5 56
-19 27 63 -33 94 -34 17 -40 18 -45 4z"/>
<path d="M1340 1971 c-29 -87 14 -140 49 -59 20 47 13 83 -19 91 -13 3 -21 -5
-30 -32z"/>
<path d="M2390 1924 c0 -9 7 -14 17 -12 25 5 28 28 4 28 -12 0 -21 -6 -21 -16z"/>
<path d="M125 1909 c-7 -11 13 -69 24 -69 13 0 31 24 31 42 0 9 -9 22 -19 28
-25 13 -28 13 -36 -1z"/>
<path d="M1171 1874 c0 -11 3 -14 6 -6 3 7 2 16 -1 19 -3 4 -6 -2 -5 -13z"/>
<path d="M0 1743 l0 -48 27 28 c22 22 26 31 17 45 -6 9 -19 18 -28 20 -13 3
-16 -5 -16 -45z"/>
<path d="M0 1570 c0 -5 5 -10 11 -10 5 0 7 5 4 10 -3 6 -8 10 -11 10 -2 0 -4
-4 -4 -10z"/>
<path d="M13 1537 c4 -10 1 -17 -6 -18 -7 -1 1 -5 18 -9 l30 -8 -27 -1 c-27
-1 -28 -3 -28 -56 0 -51 2 -55 18 -46 13 7 27 6 47 -5 33 -17 44 -11 27 16
-15 25 -6 47 23 54 32 8 22 32 -16 40 -17 3 -45 16 -62 28 -25 18 -29 19 -24
5z"/>
<path d="M2481 1486 c-12 -14 -5 -26 16 -26 15 0 18 26 4 34 -5 3 -14 0 -20
-8z"/>
<path d="M2422 1403 c4 -36 33 -39 33 -3 0 16 -6 26 -18 28 -15 3 -18 -2 -15
-25z"/>
<path d="M2 1353 c3 -30 35 -44 49 -22 11 19 -8 49 -32 49 -16 0 -20 -5 -17
-27z"/>
<path d="M2470 1315 c0 -9 5 -15 11 -13 6 2 11 8 11 13 0 5 -5 11 -11 13 -6 2
-11 -4 -11 -13z"/>
<path d="M2390 869 c0 -5 5 -7 10 -4 6 3 10 8 10 11 0 2 -4 4 -10 4 -5 0 -10
-5 -10 -11z"/>
<path d="M2273 703 c-21 -8 -16 -53 5 -53 23 0 42 19 42 42 0 18 -20 22 -47
11z"/>
<path d="M2535 550 c-3 -5 -1 -10 4 -10 6 0 11 5 11 10 0 6 -2 10 -4 10 -3 0
-8 -4 -11 -10z"/>
<path d="M1400 411 c0 -5 -8 -11 -17 -14 -14 -3 -11 -6 9 -11 39 -11 64 -1 48
19 -14 17 -40 20 -40 6z"/>
<path d="M1026 403 c-11 -11 -6 -23 9 -23 8 0 15 4 15 9 0 13 -16 22 -24 14z"/>
<path d="M1340 400 c0 -5 5 -10 10 -10 6 0 10 5 10 10 0 6 -4 10 -10 10 -5 0
-10 -4 -10 -10z"/>
<path d="M1616 331 c-3 -5 1 -14 9 -21 13 -10 15 -9 15 9 0 21 -14 28 -24 12z"/>
<path d="M2300 330 c0 -5 5 -10 11 -10 5 0 7 5 4 10 -3 6 -8 10 -11 10 -2 0
-4 -4 -4 -10z"/>
<path d="M769 267 c-21 -15 -21 -116 0 -140 25 -30 -15 -85 -52 -71 -15 5 -31
-31 -21 -48 9 -14 54 -9 60 7 4 8 17 15 30 15 12 0 27 7 32 16 12 22 4 54 -14
54 -19 0 -18 59 0 79 24 27 29 66 11 85 -19 19 -25 19 -46 3z"/>
<path d="M1905 259 c-10 -15 1 -23 20 -15 9 3 13 10 10 16 -8 13 -22 13 -30
-1z"/>
<path d="M1995 250 c3 -5 11 -10 16 -10 6 0 7 5 4 10 -3 6 -11 10 -16 10 -6 0
-7 -4 -4 -10z"/>
<path d="M917 183 c-7 -13 5 -83 14 -83 5 0 9 8 9 17 0 9 8 25 17 35 15 17 15
20 3 28 -18 12 -37 13 -43 3z"/>
<path d="M2290 120 c0 -5 7 -10 16 -10 8 0 12 5 9 10 -3 6 -10 10 -16 10 -5 0
-9 -4 -9 -10z"/>
<path d="M1150 95 c0 -8 3 -15 8 -16 4 0 17 -2 30 -3 13 -2 26 2 29 7 3 6 1 7
-6 3 -6 -4 -14 0 -17 8 -8 20 -44 21 -44 1z"/>
<path d="M1360 91 c-33 -9 -32 -33 3 -45 23 -8 31 -6 48 11 35 35 11 51 -51
34z"/>
<path d="M1752 54 c-13 -9 -31 -13 -43 -9 -22 7 -49 -10 -49 -31 0 -11 19 -14
79 -14 71 0 80 2 86 20 14 43 -31 64 -73 34z"/>
<path d="M2207 56 c-7 -18 1 -26 18 -19 8 2 11 11 8 19 -7 18 -19 18 -26 0z"/>
<path d="M420 35 c0 -19 6 -19 14 0 3 8 1 15 -4 15 -6 0 -10 -7 -10 -15z"/>
<path d="M626 26 c3 -8 12 -12 21 -9 12 5 12 7 1 14 -20 13 -28 11 -22 -5z"/>
<path d="M273 23 c-24 -9 -13 -23 17 -23 22 0 28 4 24 15 -6 15 -19 18 -41 8z"/>
<path d="M998 3 c6 -2 18 -2 25 0 6 3 1 5 -13 5 -14 0 -19 -2 -12 -5z"/>
<path d="M1333 3 c9 -2 23 -2 30 0 6 3 -1 5 -18 5 -16 0 -22 -2 -12 -5z"/>
</g>
</svg>
